<svg fill="none" viewBox="0 0 20 20" xmlns="http://www.w3.org/2000/svg"><path d="M9.104 2.899a1 1 0 0 1 1.794 0l1.93 3.911 4.317.627a1 1 0 0 1 .554 1.706l-3.124 3.045.738 4.299a1 1 0 0 1-1.451 1.054l-3.86-2.03-3.862 2.03a1 1 0 0 1-1.45-1.054l.737-4.3-3.124-3.044a1 1 0 0 1 .554-1.706l4.317-.627L9.104 2.9Zm.897.442-1.93 3.912a1 1 0 0 1-.753.547L3 8.427l3.124 3.045a1 1 0 0 1 .287.885l-.737 4.299 3.86-2.03a1 1 0 0 1 .931 0l3.861 2.03-.737-4.3a1 1 0 0 1 .287-.884l3.124-3.045-4.317-.627a1 1 0 0 1-.752-.547l-1.93-3.912Z" fill="#d9a254" class="fill-212121"></path><path d="M4.39 12.688a.5.5 0 0 1-.078.702l-2.5 2a.5.5 0 1 1-.624-.78l2.5-2a.5.5 0 0 1 .702.078ZM4.312 5.11a.5.5 0 0 1-.624.78l-2.5-2a.5.5 0 1 1 .624-.78l2.5 2ZM15.61 12.688a.5.5 0 0 0 .078.702l2.5 2a.5.5 0 1 0 .624-.78l-2.5-2a.5.5 0 0 0-.703.078ZM15.688 5.11a.5.5 0 0 0 .624.78l2.5-2a.5.5 0 1 0-.624-.78l-2.5 2Z" fill="#d9a254" class="fill-212121"></path></svg>