<svg viewBox="0 0 32 32" xml:space="preserve" xmlns="http://www.w3.org/2000/svg"><path d="M29 2H3a1 1 0 0 0-1 1v18a1 1 0 0 0 1 1h13c.008 0 .014-.004.022-.004.216.286.463.544.735.778-.009.038-.031.069-.036.108l-.714 6a1 1 0 0 0 1.548.95L20 28.202l2.445 1.63a1 1 0 0 0 1.548-.95l-.714-6c-.005-.039-.027-.071-.036-.108.272-.234.519-.492.735-.778.008 0 .014.004.022.004h5a1 1 0 0 0 1-1V3a1 1 0 0 0-1-1zm-1 4.858A3.995 3.995 0 0 1 25.142 4H28v2.858zM6.858 4A3.995 3.995 0 0 1 4 6.858V4h2.858zM4 17.142A3.995 3.995 0 0 1 6.858 20H4v-2.858zM8.91 20A6.008 6.008 0 0 0 4 15.09V8.91A6.008 6.008 0 0 0 8.91 4h14.18A6.007 6.007 0 0 0 28 8.91v6.181a5.987 5.987 0 0 0-3.437 1.885A5 5 0 0 0 20 14a5.006 5.006 0 0 0-4.899 6H8.91zM20 22c-1.654 0-3-1.346-3-3s1.346-3 3-3 3 1.346 3 3-1.346 3-3 3zm1.75 4.965-1.196-.797a.995.995 0 0 0-1.109 0l-1.196.797.379-3.18c.439.126.893.215 1.372.215s.933-.089 1.372-.215l.378 3.18zM25.142 20A3.995 3.995 0 0 1 28 17.142V20h-2.858z" fill="#d9a254" class="fill-000000"></path><path d="M13 8h6a1 1 0 1 0 0-2h-6a1 1 0 1 0 0 2zM26 11a1 1 0 0 0-1-1H7a1 1 0 1 0 0 2h18a1 1 0 0 0 1-1z" fill="#d9a254" class="fill-000000"></path></svg>